<svg xmlns="http://www.w3.org/2000/svg" width="31" height="25.189"><path d="M27.826 6.271c.019.273.019.547.019.822 0 8.4-6.4 18.1-18.1 18.1v-.005A18.005 18.005 0 010 22.334a12.937 12.937 0 001.514.092 12.771 12.771 0 007.9-2.728 6.368 6.368 0 01-5.942-4.417 6.339 6.339 0 002.871-.11 6.361 6.361 0 01-5.1-6.234v-.081a6.32 6.32 0 002.887.8 6.368 6.368 0 01-1.971-8.495 18.051 18.051 0 0013.107 6.642 6.366 6.366 0 0110.834-5.8A12.762 12.762 0 0030.139.459a6.384 6.384 0 01-2.8 3.517 12.649 12.649 0 003.652-1 12.921 12.921 0 01-3.165 3.295z" fill="#f0f0f0"/></svg>