<svg xmlns="http://www.w3.org/2000/svg" width="30.482" height="31"><path fill="#f0f0f0" d="M3 3h25v25H3z"/><g transform="translate(-4.281)" fill="#2f2f2f"><path d="M26 0H13.042a8.761 8.761 0 00-8.761 8.761v13.478A8.761 8.761 0 0013.042 31H26a8.761 8.761 0 008.761-8.761V8.761A8.761 8.761 0 0026 0zM7.391 8.761a5.657 5.657 0 015.65-5.65H26a5.657 5.657 0 015.65 5.65v13.478A5.657 5.657 0 0126 27.89H13.042a5.657 5.657 0 01-5.65-5.65z"/><path d="M19.522 23.073a7.578 7.578 0 10-7.824-7.574 7.711 7.711 0 007.824 7.574zm0-12.787a5.216 5.216 0 11-5.385 5.213 5.307 5.307 0 015.385-5.212z"/><circle cx="1.828" cy="1.828" transform="translate(25.887 5.479)" r="1.828"/></g></svg>